inDegrees=no
nColumns=32
nRows=6
DataType=double
version=3
OpenSimVersion=4.5
endheader
time	pelvis_tilt	pelvis_list	pelvis_rotation	pelvis_tz	pelvis_ty	pelvis_tx	hip_flexion_r	hip_adduction_r	hip_rotation_r	knee_angle_r	ankle_angle_r	subtalar_angle_r	mtp_angle_r	hip_flexion_l	hip_adduction_l	hip_rotation_l	knee_angle_l	ankle_angle_l	subtalar_angle_l	mtp_angle_l	lumbar_extension	lumbar_bending	lumbar_rotation	arm_flex_r	arm_add_r	arm_rot_r	elbow_flex_r	arm_flex_l	arm_add_l	arm_rot_l	elbow_flex_l
0.5699999999999998	-0.03063674479910776	-0.04437149468880867	-0.05612797209520677	0.04057357	0.9030560399999999	0.63568614	-0.2640198829399992	0.05195644295790215	-0.1373427754517807	-0.1579487445132615	0.2437323509458741	0.1799675743593925	0	0.4335261686129686	-0.0675046841646841	-0.2893991714732494	-0.05490968578726909	-0.01390768319712022	0.2425710709953184	0	-0.1661626400916006	0.0223651197503546	0.09256120075631546	0.05189147586902346	-0.1378179022452609	-0.2170671193531848	0.8679939198426408	-0.1815893936415402	0.009343842854564199	-0.6153215423476378	0.4728655026643598
0.5799999999999998	-0.03254732079312733	-0.04165840567861179	-0.06073710732437061	0.03993659999999999	0.90218562	0.64862674	-0.2674425458597911	0.04371964883430979	-0.1280391484738409	-0.1738617635479675	0.2316588285000881	0.1839451336479953	0	0.4368958513651845	-0.06618299780936174	-0.2817563711881077	-0.08042992711091031	-0.03852002955114815	0.1836617424429539	0	-0.1608478217474245	0.0163899274602867	0.09504938943638132	0.04576514155639135	-0.1330827648179386	-0.2200802428583913	0.8569956954471404	-0.1810800671213671	0.006218948987658711	-0.6082378551467797	0.4763733296231344
0.5899999999999999	-0.03454718186134415	-0.03581695252417511	-0.06192904907382819	0.03875571999999999	0.90157781	0.66161562	-0.2675274821333065	0.03254239240386406	-0.1239540660822739	-0.1952463573245517	0.2184779866227634	0.1850661301776845	0	0.442334371490892	-0.05988774721559603	-0.2789058989301518	-0.1039659446231966	-0.07828356325924267	0.1378603294540476	0	-0.1566938414364374	0.008132070877814195	0.0930363580930576	0.04007279819756628	-0.1293077844993514	-0.2214943075711596	0.8474021647425882	-0.1792240583384564	0.00387739955521985	-0.6013807225038721	0.4804422809836228
0.5999999999999999	-0.03319090874928844	-0.02696644754947764	-0.06244218501089159	0.03718166000000001	0.9017323900000001	0.67464511	-0.2685160915995075	0.01729967928569119	-0.1237935903879359	-0.2199532047054618	0.1998688262437419	0.1871650119979858	0	0.4406407795575135	-0.05041284270057767	-0.2724266417640068	-0.1224391546745291	-0.08767619801477684	0.1299145944650324	0	-0.1562059630929092	-0.003617824938618218	0.09173689955295693	0.03245747358364119	-0.1271025697161028	-0.2218961722494251	0.8380480029778875	-0.1750898156069143	0.001523649398644923	-0.5980514203873619	0.4830441649490197
0.6099999999999999	-0.03781667458131219	-0.007054394173912348	-0.06501239103025833	0.03547343999999999	0.90158664	0.68754563	-0.2546618786584173	-0.01126289397725456	-0.1242185600839052	-0.2595845300717836	0.1906249551506003	0.1961914347885494	0	0.4362231845417722	-0.02889346814143625	-0.264748165378158	-0.1235146914858561	-0.1125074318698839	0.1241523391504919	0	-0.1471035343550137	-0.02756779685036573	0.08795549328112968	0.02864917510416631	-0.1200369526071225	-0.2230845960841066	0.819157442989034	-0.173930938102074	-0.004523730931015942	-0.5910739328062965	0.4857526305867822
0.6199999999999999	-0.03868671439009494	0.0108222416272001	-0.06830533269730422	0.03384839000000001	0.90204939	0.70012042	-0.2396735692698712	-0.03877845294857517	-0.1266377023170316	-0.3067702403104008	0.1780342984542325	0.2123879534132435	0	0.430810637882394	-0.01074486105664087	-0.2635576755972411	-0.1338932608159797	-0.1352018802402583	0.1151133259037701	0	-0.1446431447556749	-0.04904847292213439	0.08662986946301481	0.02514743428302626	-0.1146508515256364	-0.2270112814684747	0.8011786423032908	-0.1700029718205678	-0.009150225626658832	-0.5814755675397164	0.4905832561992115
